# xmcd
#
# Track frame offsets:
#	150
#	11993
#	29193
#	44230
#	59166
#	74087
#
# Disc length: 1220 seconds
#
# Revision: 1
# Processed by: cddbd v1.5.2PL0 Copyright (c) Steve Scherf et al.
# Submitted via: audiograbber 1.83.01
#
DISCID=6a04c206
DTITLE=Gord Bamford - Country Christmas - Stars Special Edition
DYEAR=2013
DGENRE=Country Christmas
TTITLE0=Alberta Christmas Morning
TTITLE1=O Holy Night
TTITLE2=Baseball Glove
TTITLE3=Jingle Bells
TTITLE4=Christmas In Canada
TTITLE5=Away In A Manger
EXTD=
EXTT0=
EXTT1=
EXTT2=
EXTT3=
EXTT4=
EXTT5=
PLAYORDER=
